<svg id="Layer_1" data-name="Layer 1" xmlns="http://www.w3.org/2000/svg" viewBox="0 0 341.74 306.4"><defs><style>.cls-1,.cls-2{fill:#f33;}.cls-1{opacity:0.28;isolation:isolate;}</style></defs><title>logoFilled-red</title><g id="Layer_1-2" data-name="Layer 1"><path class="cls-1" d="M352.1,177.4c-10.4-1.8-21.1-3.2-32-4.1A123.15,123.15,0,0,0,262.5,94V59.4A153.89,153.89,0,0,1,352.1,177.4Z" transform="translate(-46.06 -46.9)"/><path class="cls-1" d="M185.6,46.9V77.8a121,121,0,0,0-30.8,7.7A123.16,123.16,0,0,0,82.6,237a180.67,180.67,0,0,0-23.8,24.1A153.72,153.72,0,0,1,138.7,58.9,152.18,152.18,0,0,1,185.6,46.9Z" transform="translate(-46.06 -46.9)"/><path class="cls-2" d="M185.6,108.6v76.6a317.47,317.47,0,0,0-30.8,10.2V119.7A90.47,90.47,0,0,1,185.6,108.6Z" transform="translate(-46.06 -46.9)"/><path class="cls-2" d="M247.1,53.6V173.8c-10.5,1.1-20.7,2.5-30.8,4.3V47.1A146.84,146.84,0,0,1,247.1,53.6Z" transform="translate(-46.06 -46.9)"/><path class="cls-1" d="M353.8,200A153.59,153.59,0,0,1,216.4,352.9V322a122.13,122.13,0,0,0,30.8-8.3,130.12,130.12,0,0,0,15.4-7.7A123.1,123.1,0,0,0,323,200c0-3.9-.2-7.7-.5-11.5,10.4-1.1,20.6-1.7,30.7-1.8C353.6,191.1,353.8,195.5,353.8,200Z" transform="translate(-46.06 -46.9)"/><path class="cls-2" d="M387.8,187.8c-11.3-.9-22.8-1.3-34.5-1.1-10.1.1-20.4.7-30.7,1.8l-.6.1c-9.7,1-19.2,2.3-28.5,4.1-10.5,1.9-20.8,4.3-30.9,7.1-5.2,1.5-10.3,3-15.4,4.7v76a90.89,90.89,0,0,1-30.8,11V216.4a331.16,331.16,0,0,0-30.8,15.8V353.3a154,154,0,0,1-110.2-63,208.09,208.09,0,0,1,20.7-24.2,123.82,123.82,0,0,0,58.8,48.6V222.6a289.68,289.68,0,0,1,30.8-14.7A319.2,319.2,0,0,1,216.5,197c10-3,20.3-5.6,30.8-7.8,5.1-1,10.2-2,15.4-2.8,7-1.1,14.2-2.1,21.4-2.8,2.7-.3,5.4-.5,8.1-.7,10-.8,19.9-1.2,29.6-1.2,10.6,0,21,.5,31.2,1.4A276.79,276.79,0,0,1,387.8,187.8Z" transform="translate(-46.06 -46.9)"/></g></svg>