<?xml version="1.0" encoding="utf-8"?>
<!-- Generator: Adobe Illustrator 23.1.0, SVG Export Plug-In . SVG Version: 6.00 Build 0)  -->
<svg version="1.1" id="Layer_1" xmlns="http://www.w3.org/2000/svg" xmlns:xlink="http://www.w3.org/1999/xlink" x="0px" y="0px"
	 viewBox="0 0 400 400" style="enable-background:new 0 0 400 400;" xml:space="preserve">
<style type="text/css">
	.st0{opacity:0.28;fill:#FFFFFF;enable-background:new    ;}
	.st1{fill:#FFFFFF;}
</style>
<title>jh-logo</title>
<g id="Layer_1_1_">
	<path class="st0" d="M352.1,177.4c-10.4-1.8-21.1-3.2-32-4.1c-7.4-33.3-28.3-62-57.6-79.3V59.4C310.6,80.9,344.4,125.3,352.1,177.4
		z"/>
	<path class="st0" d="M185.6,46.9v30.9c-10.6,1.2-20.9,3.8-30.8,7.7C94.7,109.3,63.2,175.4,82.6,237c-8.7,7.3-16.6,15.3-23.8,24.1
		c-33.8-77.9,2-168.4,79.9-202.2C153.6,52.4,169.4,48.4,185.6,46.9z"/>
	<path class="st1" d="M185.6,108.6v76.6c-10.7,3-20.9,6.3-30.8,10.2v-75.7C164.4,114.1,174.8,110.4,185.6,108.6z"/>
	<path class="st1" d="M247.1,53.6v120.2c-10.5,1.1-20.7,2.5-30.8,4.3v-131C226.8,48.2,237.1,50.3,247.1,53.6z"/>
	<path class="st0" d="M353.8,200c0.1,78.6-59.2,144.6-137.4,152.9V322c10.6-1.4,20.9-4.2,30.8-8.3c5.3-2.2,10.4-4.8,15.4-7.7
		C300,283.9,323,243.6,323,200c0-3.9-0.2-7.7-0.5-11.5c10.4-1.1,20.6-1.7,30.7-1.8C353.6,191.1,353.8,195.5,353.8,200z"/>
	<path class="st1" d="M387.8,187.8c-11.3-0.9-22.8-1.3-34.5-1.1c-10.1,0.1-20.4,0.7-30.7,1.8l-0.6,0.1c-9.7,1-19.2,2.3-28.5,4.1
		c-10.5,1.9-20.8,4.3-30.9,7.1c-5.2,1.5-10.3,3-15.4,4.7v76c-9.5,5.5-19.9,9.2-30.8,11v-75.1c-10.5,4.7-20.8,10-30.8,15.8v121.1
		c-32-3-62.2-15.9-86.4-37c-8.9-7.7-16.9-16.5-23.8-26c6.3-8.6,13.2-16.7,20.7-24.2c14,22,34.6,39,58.8,48.6v-92.1
		c10-5.5,20.2-10.4,30.8-14.7c9.9-4.1,20.1-7.7,30.8-10.9c10-3,20.3-5.6,30.8-7.8c5.1-1,10.2-2,15.4-2.8c7-1.1,14.2-2.1,21.4-2.8
		c2.7-0.3,5.4-0.5,8.1-0.7c10-0.8,19.9-1.2,29.6-1.2c10.6,0,21,0.5,31.2,1.4C364.6,183.9,376.2,185.5,387.8,187.8z"/>
</g>
</svg>
